<svg xmlns="http://www.w3.org/2000/svg" xmlns:xlink="http://www.w3.org/1999/xlink" version="1.1" id="Ebene_1" x="0px" y="0px" style="enable-background:new 0 0 1920 1080;" xml:space="preserve" viewBox="534 114 852 852">
<style type="text/css">
	.st0{clip-path:url(#SVGID_00000143616108052374169870000015088736483959947405_);fill:#FCC401;}
	.st1{clip-path:url(#SVGID_00000110450169532461346040000001326709233985557690_);fill:#222221;}
	.st2{clip-path:url(#SVGID_00000110450169532461346040000001326709233985557690_);fill:#FCC401;}
	.st3{clip-path:url(#SVGID_00000123421066215934496000000017407540215831866249_);fill:#222221;}
	.st4{clip-path:url(#SVGID_00000123421066215934496000000017407540215831866249_);fill:#FCC401;}
	.st5{clip-path:url(#SVGID_00000054960313456422445400000006296123750808007837_);fill:#222221;}
	.st6{clip-path:url(#SVGID_00000054960313456422445400000006296123750808007837_);fill:#FCC401;}
	.st7{clip-path:url(#SVGID_00000010283141058497140320000013954510419496797371_);fill:#222221;}
	.st8{clip-path:url(#SVGID_00000010283141058497140320000013954510419496797371_);fill:#FCC401;}
	.st9{clip-path:url(#SVGID_00000183244689508707027550000012723050133669907134_);fill:#222221;}
	.st10{clip-path:url(#SVGID_00000183244689508707027550000012723050133669907134_);fill:#FCC401;}
	.st11{clip-path:url(#SVGID_00000032618049948500144940000018265186605449992105_);fill:#222221;}
	.st12{clip-path:url(#SVGID_00000032618049948500144940000018265186605449992105_);fill:#FCC401;}
	.st13{fill:none;stroke:#222221;stroke-width:5;}
	.st14{fill:#222221;}
</style>
<g>
	<polygon points="961.4,538.6 961.4,114 958.6,114 958.6,538.6 534,538.6 534,541.4 958.6,541.4 958.6,966 961.4,966 961.4,541.4    1386,541.4 1386,538.6  "/>
	<path d="M955.6,525.7l-9.8-23.7h-3l10.3,24.8C953.8,526.4,954.7,526,955.6,525.7z"/>
	<path d="M964.4,554.3l9.8,23.7h3L967,553.2C966.2,553.6,965.3,554,964.4,554.3z"/>
	<path d="M950.4,528.6L923.9,502H922v1.9l26.6,26.6C949.1,529.7,949.7,529.1,950.4,528.6z"/>
	<path d="M969.6,551.4l26.6,26.6h1.9v-1.9l-26.6-26.6C970.9,550.3,970.3,550.9,969.6,551.4z"/>
	<path d="M946.8,533L922,522.8v3l23.7,9.8C946,534.7,946.4,533.8,946.8,533z"/>
	<path d="M973.2,547l24.8,10.3v-3l-23.7-9.8C974,545.3,973.6,546.2,973.2,547z"/>
	<path d="M922,554.3v3l24.8-10.3c-0.4-0.8-0.8-1.6-1.1-2.5L922,554.3z"/>
	<path d="M998,525.7v-3L973.2,533c0.4,0.8,0.8,1.6,1.1,2.5L998,525.7z"/>
	<path d="M948.6,549.6L922,576.1v1.9h1.9l26.6-26.6C949.7,550.9,949.1,550.3,948.6,549.6z"/>
	<path d="M971.4,530.4l26.6-26.6V502h-1.9l-26.6,26.6C970.3,529.1,970.9,529.7,971.4,530.4z"/>
	<path d="M977.2,502h-3l-9.8,23.7c0.9,0.3,1.7,0.6,2.5,1.1L977.2,502z"/>
	<path d="M942.8,578h3l9.8-23.7c-0.9-0.3-1.7-0.6-2.5-1.1L942.8,578z"/>
	<rect x="1176" y="166.1" transform="matrix(0.5036 -0.8639 0.8639 0.5036 439.5977 1101.2155)" width="4.3" height="3.9"/>
	<path d="M1304.1,290.8c-1.1-0.7-2.2-1-3.2-1c-1.1,0-2.1,0.4-3.1,1.1c-1,0.7-1.6,1.4-2,2.2c-0.4,0.8-0.5,1.6-0.4,2.5   c0.1,0.9,0.3,1.8,0.6,2.7s0.7,1.9,1.1,2.9c0.5,1.2,0.9,2.2,1.1,3c0.2,0.8,0.3,1.5,0.2,2.1c-0.1,0.6-0.5,1.1-1.2,1.5   c-0.8,0.5-1.7,0.7-2.6,0.5c-1-0.2-2-1.1-2.9-2.5c-0.9-1.3-1.4-2.5-1.5-3.8c-0.1-1.2,0.4-2.4,1.5-3.5l-2.2-3.1   c-1.1,0.9-1.9,2-2.3,3.3c-0.4,1.2-0.5,2.6-0.2,4.1c0.3,1.5,1,3,2.2,4.6c1,1.4,2,2.5,3.2,3.2c1.2,0.8,2.3,1.2,3.6,1.2   c1.2,0,2.4-0.4,3.6-1.2c1-0.7,1.7-1.5,2.1-2.3c0.4-0.8,0.6-1.6,0.6-2.5c0-0.9-0.2-1.8-0.5-2.7c-0.3-0.9-0.7-1.9-1.2-2.9   c-0.5-1.1-0.9-2.1-1.2-3c-0.3-0.8-0.4-1.5-0.3-2.1c0.1-0.6,0.4-1.1,1-1.5c0.7-0.5,1.4-0.6,2.3-0.4c0.9,0.2,1.7,0.9,2.6,2.1   c0.6,0.8,1,1.6,1.2,2.3c0.2,0.7,0.2,1.4,0,2c-0.2,0.6-0.6,1.2-1.1,1.7l2.1,3c0.9-0.8,1.6-1.8,2-2.9c0.4-1.1,0.4-2.3,0.2-3.6   c-0.3-1.3-0.9-2.7-2-4.1C1306.2,292.5,1305.2,291.5,1304.1,290.8z"/>
	<rect x="1300.8" y="276.8" transform="matrix(0.7972 -0.6037 0.6037 0.7972 95.9836 843.1443)" width="4.3" height="3.9"/>
	<rect x="1278.8" y="287" transform="matrix(0.7972 -0.6037 0.6037 0.7972 87.0828 837.0324)" width="21.5" height="3.7"/>
	<path d="M1268.2,279.5l10.1-8.3c0.9-0.7,1.8-1.2,2.8-1.3c1-0.2,1.9-0.1,2.9,0.3c0.9,0.4,1.7,1,2.4,1.8c0.9,1.1,1.4,2.3,1.3,3.4   c-0.1,1.1-0.6,2.1-1.7,3l-11.3,9.2l2.3,2.8l11.6-9.5c1.2-0.9,2-2,2.4-3.1c0.4-1.1,0.5-2.3,0.3-3.4c-0.3-1.2-0.9-2.3-1.8-3.5   c-0.7-0.8-1.4-1.4-2.1-1.9c-0.8-0.5-1.5-0.8-2.4-0.9s-1.7-0.2-2.6-0.2l-0.1-0.1l2.4-1.9l-2.3-2.8l-16.7,13.6L1268.2,279.5z"/>
	<path d="M1153,184.4c1.8,0.2,3.5,0,5.2-0.6c1.6-0.6,3.1-1.6,4.5-2.9c1.4-1.3,2.6-3,3.6-4.9c1.1-2,1.8-3.9,2.1-5.8   c0.4-1.9,0.4-3.7,0.1-5.4c-0.3-1.7-1.1-3.2-2.2-4.7c-1.1-1.4-2.7-2.7-4.6-3.7l-9.7-5.2l-14,26.2l9.5,5.1   C1149.3,183.6,1151.2,184.2,1153,184.4z M1153.9,156.3l5.9,3.2c2,1.1,3.3,2.3,4.1,3.8c0.7,1.5,1,3.1,0.7,4.9c-0.3,1.8-1,3.7-2,5.7   c-1.1,2-2.3,3.6-3.7,4.8c-1.4,1.2-2.9,1.8-4.5,2c-1.7,0.2-3.5-0.3-5.5-1.4l-5.7-3L1153.9,156.3z"/>
	<path d="M1317.5,319.3c-1.9,0.1-3.8,0.7-5.6,1.7c-1.8,1.1-3.2,2.4-4.3,3.9c-1.1,1.6-1.6,3.3-1.7,5.2c-0.1,1.9,0.4,3.7,1.5,5.6   c0.8,1.4,1.8,2.6,3,3.4c1.1,0.8,2.4,1.4,3.7,1.6c1.3,0.2,2.6,0.1,3.9-0.3l-1.8-3.1c-1.2,0.3-2.3,0.2-3.3-0.4   c-1.1-0.5-2-1.4-2.7-2.7c-0.7-1.2-1-2.4-0.9-3.5c0.1-1.2,0.5-2.3,1.2-3.3c0.7-1,1.6-1.9,2.8-2.7l8.3,14.2c1.6-0.9,2.9-1.9,4-3.1   c1.1-1.1,1.9-2.3,2.3-3.6c0.5-1.3,0.6-2.6,0.5-3.9s-0.6-2.7-1.4-4.1c-1-1.8-2.4-3.1-4-3.9C1321.2,319.5,1319.4,319.2,1317.5,319.3z    M1324.4,325.7c0.6,1.1,0.9,2.1,0.9,3.1c0,1-0.3,2-0.9,2.9c-0.6,0.9-1.5,1.7-2.6,2.5l-6.3-10.7c1.2-0.5,2.3-0.8,3.5-0.8   s2.1,0.2,3.1,0.6C1322.9,323.7,1323.7,324.5,1324.4,325.7z"/>
	<path d="M1300.8,316.2c-0.9,0.6-1.5,1.2-1.8,1.9c-0.3,0.7-0.4,1.4-0.2,2.2c0.2,0.8,0.5,1.6,1,2.4c0.3,0.4,0.6,0.8,0.9,1.2   c0.3,0.4,0.7,0.8,1,1.1l2.6-1.7l-0.1-0.1c-0.2-0.1-0.4-0.4-0.6-0.6c-0.3-0.3-0.5-0.5-0.6-0.8c-0.4-0.6-0.5-1.1-0.5-1.6   s0.3-0.9,1-1.4l11.4-7.4l2.4,3.7l2.4-1.6l-2.4-3.7l5.7-3.7l-2-3.1l-5.7,3.7l-1.8-2.8l-2.4,1.6l1.8,2.8L1300.8,316.2z"/>
	<path d="M1316,349.8l11.6-6c1-0.5,2-0.8,3-0.7c1,0,1.9,0.3,2.7,0.9c0.8,0.5,1.5,1.3,2,2.3c0.7,1.3,0.9,2.5,0.6,3.6   c-0.3,1.1-1,2-2.3,2.6l-12.9,6.7l1.7,3.3l13.3-6.9c1.3-0.7,2.3-1.5,3-2.5c0.6-1,1-2.1,1-3.3c0-1.2-0.4-2.5-1.1-3.8   c-0.5-0.9-1-1.7-1.7-2.3c-0.6-0.6-1.3-1.1-2.1-1.4c-0.8-0.3-1.6-0.6-2.5-0.7l-0.1-0.1l2.7-1.4l-1.7-3.3l-19.1,9.9L1316,349.8z"/>
	<path d="M1263,249.1c-1.8,0.5-3.5,1.5-5,2.9c-1.5,1.4-2.7,3-3.3,4.8c-0.7,1.8-0.9,3.6-0.5,5.5c0.3,1.8,1.2,3.6,2.7,5.1   c1.5,1.6,3.1,2.6,4.9,3.1c1.8,0.5,3.6,0.4,5.5-0.1c1.8-0.5,3.5-1.5,5.1-2.9c1.5-1.4,2.6-3,3.3-4.8c0.7-1.8,0.9-3.6,0.6-5.4   c-0.3-1.8-1.2-3.6-2.7-5.1c-1.5-1.6-3.1-2.6-4.9-3.1C1266.6,248.6,1264.8,248.6,1263,249.1z M1272.8,257.6c0.1,1.2-0.1,2.5-0.7,3.7   c-0.6,1.2-1.4,2.4-2.6,3.4c-1.1,1-2.3,1.8-3.6,2.3c-1.3,0.5-2.5,0.6-3.7,0.4c-1.2-0.2-2.3-0.9-3.3-2c-1-1.1-1.5-2.2-1.7-3.5   c-0.1-1.2,0.1-2.5,0.7-3.7c0.6-1.2,1.4-2.3,2.6-3.4s2.3-1.8,3.6-2.3c1.3-0.5,2.5-0.6,3.7-0.4c1.2,0.2,2.3,0.9,3.3,2   C1272.2,255.2,1272.7,256.3,1272.8,257.6z"/>
	<polygon points="1208.3,204.3 1220.5,213.7 1211.9,224.7 1215.2,227.2 1233.4,203.7 1230.2,201.2 1222.5,211.1 1210.4,201.7    1218.1,191.8 1214.8,189.3 1196.6,212.8 1199.8,215.3  "/>
	<rect x="1158.9" y="180.8" transform="matrix(0.5037 -0.8639 0.8639 0.5037 422.7133 1101.0427)" width="21.5" height="3.7"/>
	<path d="M1174.5,185.4c-1.1,1.8-1.8,3.6-2,5.5c-0.2,1.9,0.1,3.7,0.8,5.4c0.8,1.7,2.1,3.1,4,4.3c1.4,0.9,2.8,1.4,4.2,1.6   c1.4,0.2,2.7,0.1,4-0.3c1.3-0.4,2.4-1.1,3.3-2l-3.1-1.9c-0.9,0.8-1.9,1.2-3.1,1.2c-1.2,0-2.4-0.4-3.7-1.1c-1.2-0.7-2-1.6-2.4-2.7   c-0.5-1.1-0.6-2.2-0.5-3.4c0.1-1.2,0.5-2.5,1.2-3.7l13.9,8.8c1-1.5,1.7-3.1,2.1-4.6c0.4-1.5,0.6-2.9,0.4-4.3   c-0.2-1.3-0.6-2.6-1.3-3.7c-0.7-1.2-1.8-2.2-3.1-3c-1.7-1.1-3.5-1.6-5.4-1.6c-1.8,0-3.6,0.5-5.2,1.5   C1177,182.3,1175.6,183.7,1174.5,185.4z M1181.4,183.6c1-0.6,2-0.8,3-0.9c1.1,0,2.1,0.3,3.2,1c1,0.7,1.8,1.4,2.3,2.4   c0.5,0.9,0.6,1.9,0.5,3c-0.1,1.1-0.5,2.2-1.2,3.4l-10.5-6.7C1179.6,185,1180.4,184.2,1181.4,183.6z"/>
	<path d="M1229.3,217.6c-1.8,0.7-3.3,1.8-4.7,3.4c-1.4,1.6-2.3,3.3-2.8,5.1c-0.5,1.8-0.5,3.6,0,5.4s1.6,3.4,3.2,4.9   c1.2,1.1,2.5,1.8,3.9,2.3c1.3,0.4,2.7,0.5,4,0.3c1.3-0.2,2.5-0.7,3.6-1.5l-2.7-2.4c-1,0.6-2.1,0.9-3.3,0.7   c-1.2-0.2-2.3-0.7-3.4-1.7c-1-0.9-1.7-1.9-2-3.1c-0.3-1.1-0.3-2.3,0.1-3.5c0.3-1.2,0.9-2.3,1.8-3.5l12.4,10.9   c1.2-1.4,2.1-2.8,2.8-4.2c0.7-1.4,1-2.8,1-4.2c0-1.3-0.2-2.6-0.7-3.9c-0.5-1.3-1.4-2.4-2.6-3.5c-1.5-1.3-3.2-2.1-5.1-2.4   C1232.9,216.7,1231.1,216.9,1229.3,217.6z M1234.8,220c1,0.2,2.1,0.7,3,1.5c0.9,0.8,1.6,1.7,1.9,2.7c0.3,1,0.3,2,0,3   c-0.3,1.1-0.9,2.1-1.7,3.2l-9.4-8.2c1-0.8,2-1.5,3-1.9C1232.7,219.9,1233.8,219.8,1234.8,220z"/>
	<path d="M1238.2,241.1c-0.6,1.8-0.7,3.5-0.4,5.1c0.4,1.7,1.3,3.1,2.6,4.5c1.1,1,2.3,1.7,3.5,2c1.3,0.3,2.5,0.3,3.8-0.1l0.1,0.1   l-2.2,2.3l2.7,2.6l20.7-21.4l-2.7-2.6l-5.2,5.4c-0.5,0.5-1,1-1.5,1.6s-0.9,1-1.2,1.4l-0.1-0.1c0.2-0.9,0.3-1.7,0.2-2.6   c-0.1-0.9-0.3-1.7-0.7-2.5c-0.4-0.8-1-1.6-1.7-2.3c-1.3-1.2-2.7-2-4.4-2.3c-1.7-0.3-3.4-0.2-5.1,0.5c-1.8,0.6-3.5,1.8-5.1,3.5   C1239.9,237.6,1238.8,239.3,1238.2,241.1z M1244.2,238.6c1.1-1.1,2.2-2,3.4-2.6s2.3-0.8,3.5-0.7c1.1,0.1,2.2,0.6,3.1,1.5   c1,1,1.7,2.1,1.9,3.3c0.2,1.2,0.1,2.4-0.4,3.6c-0.5,1.2-1.3,2.4-2.4,3.6c-1.1,1.1-2.2,2-3.4,2.6c-1.2,0.6-2.4,0.8-3.6,0.6   c-1.2-0.2-2.3-0.8-3.4-1.8c-0.9-0.9-1.5-1.9-1.6-3.1c-0.1-1.1,0.1-2.3,0.6-3.5C1242.3,240.9,1243.1,239.7,1244.2,238.6z"/>
	<path d="M1286.4,818.6c-0.1,0.2-0.2,0.4-0.4,0.8c-0.2,0.3-0.4,0.6-0.6,0.8c-0.4,0.5-0.9,0.8-1.4,0.9c-0.5,0.1-1-0.1-1.6-0.6   l-10.2-8.9l2.9-3.3l-2.2-1.9l-2.9,3.3l-5.1-4.5l-2.4,2.8l5.1,4.5l-2.2,2.5l2.2,1.9l2.2-2.5l10.8,9.5c0.8,0.7,1.6,1.1,2.3,1.2   s1.5,0,2.2-0.4c0.7-0.4,1.4-0.9,2-1.6c0.3-0.4,0.6-0.8,0.9-1.2c0.3-0.4,0.6-0.9,0.8-1.3L1286.4,818.6L1286.4,818.6z"/>
	<path d="M1264.2,826.7c-0.4-0.8-0.5-1.6-0.6-2.4c0-0.8,0.1-1.6,0.4-2.3c0.3-0.7,0.7-1.4,1.3-2c0.2-0.2,0.4-0.4,0.6-0.6   c0.2-0.1,0.4-0.3,0.6-0.4l0.1-0.1l-2.6-2.4c-0.2,0.1-0.4,0.2-0.5,0.3c-0.2,0.1-0.4,0.3-0.6,0.5c-1,1-1.6,2.2-1.7,3.5   c-0.2,1.3,0,2.6,0.4,4l-0.1,0.1l-2.8-2.7l-2.5,2.7l15.6,14.7l2.6-2.7l-8.5-8C1265.1,828.2,1264.6,827.5,1264.2,826.7z"/>
	<path d="M1244.4,851.4c-1.6-1.8-3.2-3-4.9-3.8c-1.7-0.8-3.4-1-5-0.8c-1.6,0.2-3.1,1-4.5,2.2c-0.8,0.7-1.4,1.4-1.8,2.2   c-0.4,0.8-0.7,1.6-0.8,2.5c-0.1,0.9-0.1,1.8,0,2.8l-0.1,0.1l-2.2-2.5l-2.8,2.4l19,21.6l2.8-2.5l-4.3-4.9c-0.5-0.6-1-1.1-1.4-1.6   c-0.4-0.4-0.7-0.8-1-1.1l0.1-0.1c1.3,0.4,2.6,0.4,3.8,0.1c1.3-0.3,2.4-1,3.5-1.9c1.5-1.3,2.4-2.7,2.8-4.3c0.4-1.6,0.4-3.3-0.2-5.1   C1247,854.9,1245.9,853.1,1244.4,851.4z M1244.3,861.1c-0.2,1.1-0.8,2.1-1.8,3c-1.2,1-2.4,1.6-3.6,1.7c-1.2,0.1-2.4-0.2-3.5-0.8   c-1.1-0.6-2.2-1.5-3.2-2.7c-1-1.1-1.7-2.3-2.2-3.6c-0.5-1.2-0.6-2.5-0.3-3.7s0.9-2.3,2.1-3.3c1-0.9,2.1-1.3,3.2-1.4   c1.1,0,2.3,0.3,3.4,0.9c1.1,0.6,2.2,1.6,3.3,2.7c1,1.2,1.8,2.4,2.3,3.6S1244.5,860,1244.3,861.1z"/>
	<path d="M1300.7,774.7c-1.2-0.1-2.3,0.1-3.4,0.6c-1.1,0.6-2,1.4-2.9,2.7c-0.6,0.8-1,1.7-1.3,2.5c-0.2,0.8-0.3,1.7-0.3,2.5   c0,0.8,0.2,1.7,0.5,2.5l-0.1,0.1l-2.5-1.8l-2.1,3l17.4,12.6l2.2-3l-10.6-7.6c-0.9-0.7-1.6-1.5-2-2.4c-0.4-0.9-0.6-1.9-0.5-2.8   c0.1-1,0.5-1.9,1.1-2.8c0.9-1.2,1.8-1.9,2.9-2.2c1.1-0.2,2.2,0,3.3,0.9l11.8,8.5l2.1-3l-12.2-8.8   C1303.1,775.3,1301.9,774.8,1300.7,774.7z"/>
	<path d="M1283.6,793.3l10.2,8.1c0.9,0.7,1.5,1.5,1.9,2.4c0.4,0.9,0.6,1.8,0.5,2.8c-0.1,1-0.5,1.9-1.2,2.7c-0.9,1.2-1.9,1.8-3,2   c-1.1,0.2-2.2-0.2-3.2-1l-11.4-9.1l-2.3,2.9l11.6,9.2c1.2,0.9,2.3,1.5,3.6,1.7c1.2,0.2,2.4,0.1,3.5-0.4c1.1-0.5,2.2-1.3,3.1-2.5   c0.6-0.8,1.1-1.6,1.4-2.4c0.3-0.8,0.4-1.6,0.3-2.4c0-0.8-0.2-1.6-0.4-2.4l0.1-0.1l2.4,1.9l2.3-2.9l-16.8-13.4L1283.6,793.3z"/>
	<path d="M1261.5,835.1c-1.4-1.5-3.1-2.6-4.8-3.2c-1.8-0.6-3.6-0.8-5.4-0.4c-1.8,0.4-3.5,1.3-5.1,2.8c-1.5,1.5-2.5,3.1-3,5   s-0.4,3.6,0.2,5.5c0.6,1.8,1.6,3.5,3,5c1.5,1.5,3.1,2.6,4.9,3.2c1.8,0.6,3.6,0.8,5.5,0.4c1.8-0.4,3.5-1.3,5.1-2.8   c1.6-1.5,2.5-3.2,3-5c0.4-1.8,0.3-3.6-0.2-5.4C1263.9,838.3,1262.9,836.6,1261.5,835.1z M1261.5,845c-0.2,1.2-0.8,2.3-1.9,3.4   c-1,1-2.2,1.6-3.4,1.8c-1.2,0.2-2.5,0-3.7-0.6c-1.2-0.6-2.4-1.4-3.5-2.5c-1.1-1.1-1.9-2.3-2.4-3.6c-0.5-1.3-0.7-2.5-0.5-3.7   c0.2-1.2,0.8-2.3,1.9-3.4c1.1-1,2.2-1.6,3.4-1.8c1.2-0.2,2.5,0,3.7,0.6c1.2,0.6,2.4,1.4,3.5,2.5c1.1,1.1,1.9,2.3,2.4,3.5   C1261.6,842.5,1261.7,843.8,1261.5,845z"/>
	<path d="M1226.7,866.8c-1.4-1.9-3-3.2-4.6-4.1c-1.7-0.9-3.3-1.2-5-1.1c-1.6,0.1-3.2,0.8-4.6,1.9c-0.8,0.6-1.5,1.3-1.9,2.1   c-0.5,0.8-0.8,1.6-1,2.4s-0.2,1.8-0.1,2.8l-0.1,0.1l-2-2.6l-2.9,2.3l17.6,22.7l2.9-2.3l-4-5.2c-0.5-0.6-0.9-1.2-1.3-1.7   c-0.4-0.5-0.7-0.8-1-1.1l0.1-0.1c1.3,0.4,2.5,0.5,3.8,0.3c1.3-0.2,2.5-0.8,3.6-1.7c1.5-1.2,2.6-2.6,3.1-4.2   c0.5-1.6,0.6-3.3,0.1-5.1C1229.1,870.4,1228.1,868.6,1226.7,866.8z M1226,876.4c-0.3,1.1-0.9,2.1-2,2.9c-1.2,1-2.5,1.5-3.7,1.5   c-1.2,0-2.4-0.3-3.5-1c-1.1-0.7-2.1-1.7-3.1-2.8c-0.9-1.2-1.6-2.4-2-3.7c-0.4-1.3-0.4-2.5-0.1-3.7c0.3-1.2,1.1-2.2,2.3-3.2   c1-0.8,2.1-1.2,3.3-1.2c1.1,0,2.2,0.4,3.4,1.1c1.1,0.7,2.1,1.7,3.1,2.9c1,1.2,1.6,2.5,2,3.7C1226.2,874.1,1226.3,875.3,1226,876.4z   "/>
	<path d="M1170.6,910.7c0.2,1.2,0.1,2.3-0.4,3.3c-0.5,1.1-1.5,1.9-2.8,2.7c-1.2,0.7-2.4,0.9-3.6,0.8c-1.2-0.1-2.2-0.5-3.2-1.2   c-1-0.7-1.9-1.7-2.7-2.8l14.4-8c-0.9-1.6-1.9-2.9-3-4.1c-1.1-1.1-2.3-1.9-3.6-2.4c-1.2-0.5-2.6-0.7-3.9-0.6   c-1.4,0.1-2.7,0.5-4.1,1.3c-1.8,1-3.1,2.3-4,3.9c-0.9,1.6-1.3,3.4-1.2,5.3c0.1,1.9,0.6,3.8,1.6,5.6c1,1.8,2.3,3.3,3.8,4.4   c1.6,1.1,3.3,1.7,5.1,1.9c1.9,0.1,3.8-0.3,5.7-1.4c1.4-0.8,2.6-1.8,3.5-2.9c0.9-1.1,1.4-2.3,1.7-3.6c0.3-1.3,0.2-2.6-0.2-3.9   L1170.6,910.7z M1156.7,911.1c-0.5-1.2-0.7-2.4-0.7-3.5c0-1.1,0.2-2.1,0.7-3.1c0.5-0.9,1.3-1.7,2.5-2.3c1.1-0.6,2.1-0.9,3.2-0.8   c1,0,2,0.4,2.9,1c0.9,0.6,1.7,1.5,2.4,2.7L1156.7,911.1z"/>
	<rect x="1147" y="906.4" transform="matrix(0.8928 -0.4505 0.4505 0.8928 -289.9589 615.8552)" width="3.7" height="21.5"/>
	<path d="M1205.5,878c-1.3-1.8-2.7-3.3-4.3-4.5c-1.6-1.2-3.3-2-5.2-2.4c-1.8-0.4-3.7-0.4-5.6-0.1c-1.9,0.4-3.8,1.2-5.6,2.5   c-1.9,1.3-3.3,2.7-4.4,4.4c-1,1.6-1.7,3.4-2,5.3c-0.3,1.9-0.1,3.8,0.4,5.7c0.5,1.9,1.4,3.8,2.7,5.7c1.3,1.8,2.7,3.3,4.3,4.5   c1.6,1.2,3.3,2,5.2,2.4c1.8,0.4,3.7,0.5,5.6,0.1c1.9-0.4,3.8-1.2,5.7-2.5c1.8-1.3,3.3-2.7,4.3-4.4c1-1.6,1.7-3.4,2-5.3   c0.3-1.9,0.1-3.8-0.4-5.7C1207.6,881.7,1206.7,879.9,1205.5,878z M1204.6,888.9c-0.1,1.4-0.5,2.7-1.3,3.9c-0.7,1.2-1.8,2.3-3.2,3.3   s-2.8,1.6-4.2,1.8c-1.4,0.2-2.8,0.2-4.1-0.2c-1.3-0.4-2.6-1-3.8-2c-1.2-0.9-2.3-2.1-3.2-3.5c-1-1.4-1.7-2.8-2.1-4.3   c-0.4-1.5-0.6-2.9-0.5-4.3c0.1-1.4,0.5-2.7,1.3-3.9c0.7-1.2,1.8-2.3,3.2-3.3c1.4-1,2.8-1.6,4.2-1.8c1.4-0.2,2.8-0.2,4.1,0.2   c1.3,0.4,2.6,1.1,3.8,2c1.2,0.9,2.3,2.1,3.2,3.5c1,1.4,1.7,2.8,2.1,4.3C1204.5,886.1,1204.7,887.5,1204.6,888.9z"/>
	<path d="M1337.2,744.7c-0.1,0.2-0.1,0.5-0.3,0.8c-0.1,0.4-0.3,0.7-0.4,0.9c-0.3,0.6-0.7,1-1.1,1.2c-0.4,0.2-1,0.1-1.7-0.2   l-11.9-6.5l2.1-3.9l-2.5-1.4l-2.1,3.9l-5.9-3.3l-1.8,3.2l5.9,3.3l-1.6,3l2.5,1.4l1.6-3l12.6,6.9c0.9,0.5,1.8,0.7,2.5,0.7   s1.4-0.3,2-0.8c0.6-0.5,1.1-1.2,1.6-2c0.2-0.4,0.5-0.9,0.6-1.4c0.2-0.5,0.4-1,0.5-1.4l-2.7-1.5L1337.2,744.7z"/>
	<path d="M1328.3,755.1c-1.1-0.7-2-1-2.9-1.1s-1.7,0.1-2.5,0.5c-0.8,0.4-1.5,0.9-2.3,1.6c-0.7,0.7-1.5,1.4-2.2,2.2   c-0.9,0.9-1.6,1.7-2.2,2.3c-0.6,0.6-1.3,1-1.8,1.2c-0.6,0.2-1.2,0.1-1.8-0.3c-0.7-0.4-1.1-1.1-1.3-2c-0.2-0.9,0.1-1.9,0.9-3.2   c0.5-0.9,1.1-1.5,1.7-2c0.6-0.4,1.2-0.7,1.8-0.8c0.6-0.1,1.3,0.1,2,0.4l1.9-3.2c-1.1-0.5-2.3-0.7-3.4-0.7c-1.1,0.1-2.3,0.5-3.3,1.2   c-1.1,0.8-2.1,1.9-3,3.4c-0.9,1.4-1.4,2.8-1.6,4c-0.2,1.3-0.1,2.4,0.4,3.4c0.4,1,1.2,1.8,2.2,2.5c1,0.6,1.9,0.9,2.8,1   c0.9,0,1.7-0.2,2.5-0.6c0.8-0.4,1.5-0.9,2.3-1.6c0.7-0.7,1.5-1.4,2.2-2.2c0.9-0.9,1.7-1.7,2.3-2.2c0.7-0.6,1.3-0.9,1.9-1   c0.6-0.1,1.2,0,1.9,0.4c0.8,0.5,1.3,1.2,1.5,2.2c0.2,1-0.2,2.2-1.1,3.7c-0.8,1.3-1.8,2.3-2.8,2.9c-1.1,0.6-2.4,0.6-3.8,0l-2,3.2   c1.3,0.7,2.6,0.9,3.9,0.9c1.3-0.1,2.6-0.6,3.8-1.5c1.2-0.9,2.4-2.1,3.4-3.8c0.9-1.4,1.5-2.8,1.7-4.2c0.3-1.4,0.2-2.6-0.3-3.8   C1330.4,756.8,1329.6,755.9,1328.3,755.1z"/>
	<path d="M1345.3,722.9l-1.6,3.2c0.9,0.8,1.4,1.8,1.5,3c0.1,1.2-0.1,2.4-0.8,3.7c-0.6,1.2-1.4,2.1-2.5,2.7c-1,0.6-2.1,0.8-3.4,0.8   c-1.2,0-2.5-0.3-3.8-0.8l7.4-14.7c-1.6-0.8-3.2-1.4-4.8-1.7s-3-0.3-4.3,0c-1.3,0.3-2.5,0.9-3.6,1.7c-1.1,0.8-2,2-2.7,3.4   c-0.9,1.8-1.3,3.7-1.1,5.5c0.2,1.8,0.9,3.5,2,5.1c1.1,1.5,2.6,2.8,4.5,3.7c1.9,0.9,3.8,1.4,5.7,1.5c1.9,0,3.7-0.4,5.3-1.4   c1.6-0.9,2.9-2.4,3.9-4.4c0.7-1.5,1.2-2.9,1.2-4.3c0.1-1.4-0.1-2.7-0.7-3.9C1347.1,724.8,1346.3,723.8,1345.3,722.9z M1329.8,731.8   c-0.7-0.9-1-1.9-1.1-2.9s0.1-2.2,0.7-3.3c0.6-1.1,1.3-1.9,2.1-2.5c0.9-0.5,1.8-0.8,2.9-0.8c1.1,0,2.3,0.3,3.5,0.9l-5.6,11.1   C1331.3,733.5,1330.4,732.7,1329.8,731.8z"/>
	<path d="M1342.4,698.2c-1.2,0.1-2.2,0.6-3.2,1.3c-0.9,0.8-1.7,1.8-2.3,3.2c-0.4,1-0.7,1.9-0.7,2.7c-0.1,0.9,0,1.7,0.2,2.5   c0.2,0.8,0.5,1.6,1,2.4l-0.1,0.1l-2.8-1.2l-1.5,3.4l19.6,8.7l1.5-3.4l-12-5.3c-1-0.5-1.9-1.1-2.5-1.9c-0.6-0.8-0.9-1.7-1-2.7   c-0.1-1,0.1-2,0.5-3c0.6-1.3,1.4-2.2,2.4-2.7c1-0.5,2.2-0.4,3.4,0.2l13.3,5.9l1.5-3.4l-13.7-6.1   C1344.9,698.4,1343.6,698.1,1342.4,698.2z"/>
	<rect x="1309.7" y="762.1" transform="matrix(0.5548 -0.832 0.832 0.5548 -59.1266 1435.2594)" width="3.7" height="21.5"/>
	<rect x="1295.6" y="761.4" transform="matrix(0.5549 -0.8319 0.8319 0.5549 -57.611 1419.3735)" width="3.9" height="4.3"/>
	<rect x="1139.3" y="899.9" transform="matrix(0.8927 -0.4506 0.4506 0.8927 -284.0425 611.0732)" width="3.9" height="4.3"/>
	<path d="M1141.8,916.3c-0.9-2-2-3.8-3.2-5.2c-1.3-1.5-2.6-2.6-4.2-3.3c-1.5-0.8-3.2-1.1-5-1.1c-1.8,0-3.7,0.5-5.8,1.4l-10,4.5   l12.1,27.2l9.8-4.4c2-0.9,3.7-2,4.9-3.4c1.3-1.3,2.1-2.8,2.7-4.5c0.5-1.6,0.7-3.4,0.5-5.3C1143.3,920.3,1142.7,918.4,1141.8,916.3z    M1138.3,928.7c-0.9,1.4-2.4,2.6-4.4,3.5l-5.9,2.6l-9.2-20.7l6.1-2.7c2.1-0.9,3.9-1.2,5.5-0.9c1.6,0.3,3.1,1.1,4.3,2.5   c1.2,1.3,2.3,3,3.3,5.1c0.9,2.1,1.4,4,1.5,5.8C1139.6,925.7,1139.2,927.3,1138.3,928.7z"/>
	<path d="M713.4,891.5c-0.3-0.2-0.6-0.3-0.9-0.5c-0.5-0.4-0.9-0.8-1.1-1.3c-0.2-0.5,0-1,0.4-1.6l7.9-11l3.6,2.6l1.7-2.3l-3.6-2.6   l3.9-5.5l-3-2.1l-3.9,5.5l-2.7-2l-1.7,2.3l2.7,2l-8.4,11.7c-0.6,0.9-0.9,1.7-1,2.4c0,0.8,0.2,1.5,0.6,2.1c0.4,0.7,1,1.3,1.8,1.8   c0.4,0.3,0.8,0.6,1.3,0.8c0.4,0.2,0.9,0.5,1.4,0.7l1.8-2.5l-0.1-0.1C714,891.8,713.8,891.6,713.4,891.5z"/>
	<path d="M755.8,896.1c-0.9-0.5-1.8-0.9-2.6-1c-0.9-0.2-1.7-0.2-2.5-0.1c-0.8,0.1-1.7,0.4-2.5,0.7l-0.1-0.1l1.5-2.6l-3.2-1.8   l-10.8,18.6l3.2,1.9l6.6-11.3c0.6-1,1.3-1.7,2.2-2.2c0.9-0.5,1.8-0.8,2.8-0.7c1,0,2,0.3,2.9,0.9c1.3,0.7,2.1,1.6,2.4,2.7   c0.3,1.1,0.2,2.2-0.5,3.4l-7.3,12.6l3.2,1.9l7.6-13c0.8-1.3,1.1-2.5,1.2-3.7c0-1.2-0.3-2.3-1-3.3   C758.1,897.7,757.1,896.9,755.8,896.1z"/>
	<rect x="697.6" y="848.1" transform="matrix(0.641 -0.7676 0.7676 0.641 -401.2592 842.3281)" width="4.3" height="3.9"/>
	<path d="M710.1,873.4c0.6-1.1,1-2.2,1-3.3c0.1-1.1-0.2-2.3-0.9-3.5c-0.6-1.2-1.7-2.3-3.1-3.4c-1.3-1-2.6-1.7-3.8-2   c-1.2-0.3-2.4-0.3-3.4,0c-1,0.3-1.9,1-2.7,2c-0.7,0.9-1.1,1.8-1.3,2.7c-0.1,0.9,0,1.7,0.3,2.5c0.3,0.8,0.8,1.6,1.4,2.4   c0.6,0.8,1.2,1.6,1.9,2.4c0.8,1,1.5,1.8,2,2.5c0.5,0.7,0.7,1.4,0.8,2c0,0.6-0.2,1.2-0.6,1.8c-0.6,0.8-1.4,1.2-2.4,1.2   c-1,0.1-2.2-0.4-3.5-1.5c-1.2-0.9-2.1-2-2.6-3.1c-0.5-1.1-0.3-2.4,0.4-3.8l-3-2.3c-0.8,1.2-1.2,2.5-1.3,3.8c-0.1,1.3,0.3,2.6,1,4   c0.7,1.3,1.9,2.6,3.4,3.8c1.3,1,2.7,1.7,4,2.2c1.3,0.4,2.6,0.4,3.8,0.1c1.2-0.3,2.2-1.1,3.1-2.2c0.8-1,1.2-1.9,1.4-2.8   c0.2-0.9,0.1-1.7-0.2-2.6c-0.3-0.8-0.7-1.6-1.3-2.4c-0.6-0.8-1.2-1.6-2-2.4c-0.8-0.9-1.5-1.8-2-2.5c-0.5-0.7-0.8-1.4-0.9-1.9   c-0.1-0.6,0.1-1.2,0.5-1.8c0.5-0.6,1.2-1,2.1-1.1c0.9-0.1,1.9,0.3,3.1,1.2c0.8,0.6,1.4,1.3,1.8,1.9c0.4,0.6,0.6,1.3,0.6,1.9   c0,0.6-0.2,1.3-0.6,1.9L710.1,873.4z"/>
	<rect x="678.2" y="861.2" transform="matrix(0.6411 -0.7675 0.7675 0.6411 -415.0721 838.4821)" width="21.5" height="3.7"/>
	<path d="M728.7,901.3c-1.2,0-2.4-0.4-3.6-1.2c-1.2-0.8-2-1.7-2.4-2.7c-0.5-1.1-0.6-2.2-0.4-3.5c0.2-1.2,0.6-2.5,1.3-3.7l13.8,9   c1-1.5,1.7-3,2.2-4.5c0.5-1.5,0.6-2.9,0.4-4.3c-0.2-1.3-0.6-2.6-1.3-3.7c-0.7-1.2-1.7-2.2-3.1-3.1c-1.7-1.1-3.5-1.7-5.3-1.7   s-3.6,0.5-5.2,1.5c-1.6,1-3,2.3-4.2,4.1c-1.1,1.8-1.8,3.6-2.1,5.5c-0.2,1.9,0,3.7,0.8,5.4c0.8,1.7,2.1,3.2,3.9,4.4   c1.4,0.9,2.8,1.5,4.2,1.7c1.4,0.2,2.7,0.1,4-0.2c1.3-0.4,2.4-1.1,3.4-2l-3-2C730.9,900.9,729.9,901.3,728.7,901.3z M727.7,885.8   c1-0.5,2-0.8,3-0.8c1.1,0,2.1,0.4,3.2,1.1c1,0.7,1.8,1.5,2.2,2.4c0.4,0.9,0.6,1.9,0.5,3c-0.1,1.1-0.5,2.2-1.2,3.4L725,888   C725.8,887.1,726.7,886.3,727.7,885.8z"/>
	<path d="M645,817.7c0-0.9-0.2-1.8-0.6-2.9l0.1-0.1c1.7,1.1,3.4,1.6,4.9,1.4c1.5-0.2,2.9-0.9,4.3-2c1.3-1.1,2.1-2.3,2.6-3.6   c0.5-1.4,0.5-2.8,0.2-4.2c-0.3-1.5-1.1-2.9-2.2-4.2l-8.9-10.7l-22.8,19.1l2.6,3.1l9.5-8l5.1,6.1c1.2,1.5,1.8,2.9,1.8,4.1   c-0.1,1.3-0.9,2.6-2.4,4.1c-1.1,1.1-2,2-2.7,2.6c-0.6,0.6-1.1,1.1-1.4,1.5c-0.3,0.4-0.4,0.7-0.4,1l2.8,3.4l0.1-0.1   c0-0.2,0-0.4,0.2-0.7c0.1-0.3,0.4-0.7,0.7-1.1c0.3-0.4,0.8-0.9,1.3-1.5c0.5-0.6,1.2-1.2,1.9-1.9c1.1-1,1.9-2,2.4-2.8   C644.7,819.4,645,818.6,645,817.7z M642.6,810.1l-5.5-6.5l8.1-6.8l5.6,6.7c1.3,1.6,2,3,1.9,4.3c-0.1,1.3-0.8,2.4-2.2,3.6   c-1.2,1-2.5,1.5-3.9,1.3C645.2,812.5,643.9,811.6,642.6,810.1z"/>
	<path d="M611.3,778.7l9.5,13.5c1.5-1,2.7-2.2,3.7-3.4s1.6-2.5,2-3.8c0.3-1.3,0.4-2.6,0.2-4c-0.2-1.3-0.8-2.7-1.7-4   c-1.2-1.7-2.6-2.8-4.3-3.5c-1.7-0.7-3.5-0.9-5.4-0.6c-1.9,0.3-3.7,1-5.4,2.2c-1.7,1.2-3,2.6-4,4.3c-0.9,1.7-1.4,3.4-1.3,5.3   c0.1,1.9,0.7,3.7,2,5.5c1,1.4,2,2.4,3.2,3.1c1.2,0.7,2.5,1.1,3.8,1.3c1.3,0.1,2.6-0.1,3.9-0.6l-2.1-3c-1.1,0.4-2.2,0.3-3.3-0.1   c-1.1-0.4-2.1-1.2-2.9-2.5c-0.8-1.1-1.2-2.3-1.2-3.4c0-1.2,0.3-2.3,0.9-3.4C609.4,780.6,610.2,779.6,611.3,778.7z M616.9,776.2   c1.1-0.1,2.1,0,3.1,0.4c1,0.4,1.8,1.1,2.6,2.2c0.7,1,1.1,2,1.2,3.1c0.1,1-0.2,2-0.7,3c-0.5,1-1.3,1.9-2.4,2.7l-7.1-10.2   C614.7,776.7,615.8,776.3,616.9,776.2z"/>
	<rect x="595.9" y="768.3" transform="matrix(0.8386 -0.5448 0.5448 0.8386 -321.663 454.8139)" width="21.5" height="3.7"/>
	<path d="M600.9,765.2c1.8-0.4,3.7-1.2,5.6-2.4c1.9-1.1,3.5-2.4,4.8-3.8c1.3-1.4,2.2-2.9,2.8-4.6c0.6-1.6,0.7-3.3,0.5-5.1   c-0.2-1.8-0.9-3.6-2.1-5.6l-5.7-9.4l-25.5,15.3l5.5,9.2c1.1,1.9,2.5,3.4,3.9,4.5c1.5,1.1,3.1,1.8,4.8,2.1   C597.3,765.7,599.1,765.6,600.9,765.2z M593.9,760.8c-1.5-0.7-2.8-2-4-4l-3.3-5.5l19.4-11.6l3.4,5.7c1.2,1.9,1.7,3.7,1.5,5.4   c-0.1,1.7-0.8,3.2-1.9,4.6c-1.2,1.4-2.7,2.7-4.7,3.8c-2,1.2-3.8,1.9-5.6,2.2C597,761.7,595.4,761.5,593.9,760.8z"/>
	<path d="M651.9,838.5c-1.2-0.3-2.2-0.9-3.3-2c-0.9-1-1.5-2.1-1.7-3.2s-0.1-2.3,0.4-3.5c0.4-1.2,1.1-2.2,2.1-3.3l11.3,12   c1.3-1.2,2.4-2.5,3.2-3.9c0.8-1.3,1.3-2.7,1.4-4.1c0.2-1.3,0-2.6-0.4-3.9s-1.2-2.5-2.3-3.7c-1.4-1.5-3-2.4-4.8-2.9   s-3.6-0.4-5.4,0.2c-1.8,0.5-3.5,1.5-5,3c-1.5,1.4-2.6,3-3.3,4.8s-0.9,3.6-0.5,5.4c0.3,1.8,1.3,3.6,2.8,5.2c1.1,1.2,2.3,2.1,3.6,2.6   c1.3,0.5,2.6,0.8,3.9,0.7s2.6-0.5,3.7-1.1l-2.5-2.6C654.1,838.6,653,838.7,651.9,838.5z M654.6,823.1c1.1-0.3,2.1-0.3,3.1-0.1   c1,0.3,2,0.9,2.9,1.8c0.8,0.9,1.4,1.9,1.6,2.9c0.2,1,0.1,2-0.2,3c-0.4,1-1.1,2-2,3l-8.5-9.1C652.4,824,653.5,823.4,654.6,823.1z"/>
	<rect x="618.6" y="759.1" transform="matrix(0.8386 -0.5448 0.5448 0.8386 -314.3699 461.0207)" width="4.3" height="3.9"/>
	<path d="M672.1,859.4c-0.1-0.1-0.2-0.2-0.3-0.2c-0.4-0.4-0.6-0.9-0.5-1.3c0.1-0.5,0.5-1,1-1.6l6.9-7.3c1-1,1.6-2.1,1.9-3.1   c0.3-1,0.3-2.1,0-3.1c-0.2-0.8-0.6-1.5-1.1-2.2c-0.5-0.7-1.1-1.5-1.9-2.2c-1.4-1.3-2.8-2.2-4.1-2.6c-1.4-0.4-2.6-0.5-3.8-0.1   c-1.2,0.3-2.2,0.9-3.1,1.7l2.6,2.5c0.9-0.9,1.9-1.3,3.1-1.3s2.3,0.6,3.5,1.8c1.1,1,1.7,2,1.8,3.1c0.1,1-0.2,2-1,2.8   c-0.5,0.5-1,0.8-1.6,0.8c-0.6,0-1.2-0.2-1.9-0.6c-0.7-0.4-1.5-0.9-2.3-1.5c-1.5-1.1-2.9-2-4.2-2.6c-1.3-0.6-2.5-0.9-3.7-0.8   c-1.2,0.1-2.3,0.8-3.5,2c-0.9,1-1.5,2-1.6,3.2c-0.2,1.1,0,2.2,0.5,3.3c0.5,1.1,1.2,2.1,2.2,3c1.3,1.2,2.7,2,4,2.3   c1.4,0.3,2.6,0.3,3.7,0l0.1,0c-0.4,0.5-0.6,1-0.7,1.4c-0.2,0.7-0.2,1.4,0,2c0.2,0.6,0.6,1.2,1.1,1.7c0.3,0.3,0.6,0.5,0.9,0.7   c0.3,0.2,0.5,0.3,0.8,0.4l1.8-1.9l-0.1-0.1C672.3,859.5,672.2,859.4,672.1,859.4z M669.6,853.1c-0.9,0.3-1.9,0.4-3,0.2   c-1.1-0.2-2.1-0.8-3.2-1.8c-0.5-0.5-1-1-1.3-1.6c-0.4-0.6-0.5-1.2-0.5-1.9c0-0.6,0.4-1.3,1-2c0.7-0.7,1.4-1.1,2.1-1.2   c0.7,0,1.5,0.1,2.3,0.5c0.8,0.4,1.7,0.9,2.7,1.6c0.5,0.3,1,0.6,1.5,0.9c0.5,0.3,1,0.5,1.6,0.8c0.5,0.2,1,0.4,1.4,0.4l-2.4,2.6   C671.3,852.3,670.5,852.8,669.6,853.1z"/>
	<rect x="669.8" y="852" transform="matrix(0.6593 -0.7519 0.7519 0.6593 -408.7514 805.7408)" width="29.8" height="3.7"/>
	<path d="M756,191.7l-6.5-11.4c-0.6-1-0.9-2-0.9-3c0-1,0.2-1.9,0.8-2.8c0.5-0.8,1.2-1.5,2.2-2.1c1.3-0.7,2.5-1,3.6-0.7   c1.1,0.2,2,1,2.7,2.2l7.2,12.7l3.2-1.8l-7.4-13c-0.7-1.3-1.6-2.3-2.6-2.9c-1-0.6-2.1-0.9-3.3-0.8c-1.2,0.1-2.5,0.4-3.8,1.2   c-0.9,0.5-1.6,1.1-2.2,1.8c-0.6,0.7-1,1.4-1.3,2.2c-0.3,0.8-0.5,1.6-0.6,2.5l-0.1,0.1l-1.5-2.7l-3.2,1.8l10.6,18.7L756,191.7z"/>
	<rect x="594.8" y="305.5" transform="matrix(0.5447 -0.8387 0.8387 0.5447 13.6878 640.5818)" width="3.9" height="4.3"/>
	<rect x="630.7" y="264.4" transform="matrix(0.6226 -0.7825 0.7825 0.6226 20.2383 600.5574)" width="4.1" height="29.8"/>
	<path d="M655,259.5c1.5,1.5,3.2,2.5,5,3.1c1.8,0.6,3.6,0.7,5.4,0.3c1.8-0.4,3.5-1.4,5-3c1.1-1.2,2-2.4,2.5-3.8   c0.5-1.3,0.7-2.6,0.5-3.9c-0.1-1.3-0.6-2.5-1.3-3.7l-2.5,2.6c0.6,1,0.8,2.1,0.6,3.3c-0.2,1.2-0.8,2.3-1.9,3.3c-1,1-2,1.6-3.1,1.9   s-2.3,0.2-3.5-0.2c-1.2-0.4-2.3-1-3.4-1.9l11.4-11.9c-1.3-1.3-2.7-2.3-4-3c-1.4-0.7-2.8-1.1-4.1-1.2c-1.3-0.1-2.6,0.1-3.9,0.6   c-1.3,0.5-2.5,1.3-3.6,2.4c-1.4,1.5-2.3,3.1-2.6,4.9c-0.3,1.8-0.2,3.6,0.4,5.4C652.4,256.4,653.5,258,655,259.5z M654.4,249.2   c0.2-1,0.8-2,1.7-3c0.9-0.9,1.8-1.5,2.8-1.7c1-0.3,2-0.2,3,0.1s2.1,1,3.1,1.9l-8.6,9c-0.8-1-1.4-2-1.7-3.1   C654.3,251.3,654.2,250.3,654.4,249.2z"/>
	<path d="M613.8,312.1c1.7,1.2,3.5,2,5.4,2.3c1.9,0.3,3.7,0.1,5.4-0.6s3.2-1.9,4.5-3.7c1-1.4,1.6-2.7,1.8-4.1c0.3-1.4,0.2-2.7-0.1-4   c-0.3-1.3-1-2.4-1.9-3.4l-2.1,3c0.7,0.9,1.1,2,1.1,3.2c0,1.2-0.5,2.4-1.3,3.6c-0.8,1.1-1.7,1.9-2.8,2.3c-1.1,0.4-2.2,0.5-3.5,0.3   c-1.2-0.2-2.4-0.7-3.6-1.4l9.5-13.5c-1.5-1-3-1.8-4.5-2.3c-1.5-0.5-2.9-0.7-4.3-0.6c-1.3,0.1-2.6,0.5-3.8,1.2   c-1.2,0.7-2.2,1.6-3.2,3c-1.2,1.7-1.8,3.4-1.8,5.3c-0.1,1.8,0.4,3.6,1.3,5.3C610.8,309.4,612.1,310.9,613.8,312.1z M612.8,298.8   c0.7-1,1.5-1.7,2.5-2.1c0.9-0.4,1.9-0.5,3-0.4c1.1,0.2,2.2,0.6,3.4,1.4l-7.2,10.2c-0.9-0.9-1.7-1.8-2.2-2.8c-0.5-1-0.8-2-0.7-3.1   C611.7,300.9,612.1,299.9,612.8,298.8z"/>
	<rect x="609" y="306.1" transform="matrix(0.5448 -0.8386 0.8386 0.5448 12.3715 656.5371)" width="3.7" height="21.5"/>
	<path d="M668.5,239.4l2.7-2.4c-0.8-1-1.2-2-1.1-3.2c0.1-1.1,0.8-2.3,2-3.4c1.1-1,2.1-1.5,3.2-1.6c1,0,1.9,0.4,2.7,1.2   c0.5,0.5,0.7,1.1,0.7,1.7s-0.3,1.2-0.7,1.9c-0.4,0.7-1,1.4-1.7,2.2c-1.2,1.4-2.2,2.7-2.9,4c-0.7,1.2-1.1,2.5-1.1,3.6   c0,1.2,0.6,2.4,1.8,3.6c0.9,1,1.9,1.6,3,1.9c1.1,0.2,2.2,0.1,3.3-0.3c1.1-0.4,2.2-1.1,3.2-2c1.3-1.2,2.2-2.5,2.6-3.8   c0.4-1.3,0.5-2.6,0.3-3.7l0.1,0c0.5,0.4,0.9,0.7,1.4,0.8c0.7,0.3,1.4,0.3,2,0.1c0.6-0.2,1.2-0.5,1.8-1c0.3-0.3,0.6-0.6,0.8-0.8   c0.2-0.3,0.4-0.5,0.5-0.7l-1.8-1.9l-0.1,0.1c0,0.1-0.1,0.2-0.2,0.3c-0.1,0.1-0.2,0.2-0.3,0.3c-0.5,0.4-0.9,0.5-1.4,0.4   c-0.5-0.2-1-0.5-1.5-1.1l-6.8-7.4c-1-1.1-2-1.8-3-2.1c-1-0.4-2.1-0.4-3.1-0.2c-0.8,0.2-1.5,0.5-2.3,0.9c-0.8,0.5-1.5,1-2.3,1.7   c-1.4,1.3-2.4,2.6-2.9,4c-0.5,1.3-0.6,2.6-0.4,3.8C667.2,237.4,667.7,238.4,668.5,239.4z M680.3,234.3c0.3-0.5,0.4-0.9,0.5-1.3   l2.4,2.6c0.6,0.6,1,1.4,1.2,2.3c0.3,0.9,0.3,2,0,3c-0.3,1.1-0.9,2.1-2,3.1c-0.5,0.5-1.1,0.9-1.7,1.2c-0.6,0.3-1.2,0.4-1.9,0.3   c-0.6-0.1-1.3-0.5-1.9-1.1c-0.7-0.7-1-1.5-1-2.2c0-0.7,0.2-1.5,0.7-2.3c0.5-0.8,1-1.7,1.8-2.6c0.4-0.5,0.7-1,1-1.5   C679.7,235.3,680,234.8,680.3,234.3z"/>
	<path d="M610.1,338.8c1.1-1.9,1.8-3.8,2-5.6c0.2-1.8,0.1-3.5-0.5-5.2c-0.5-1.6-1.5-3.2-2.7-4.6c-1.3-1.4-2.9-2.7-4.8-3.8   c-1.9-1.1-3.8-1.9-5.7-2.4c-1.9-0.4-3.6-0.5-5.3-0.2c-1.7,0.3-3.3,1-4.7,2c-1.5,1.1-2.8,2.6-3.9,4.5l-5.5,9.5l25.7,15L610.1,338.8z    M584.2,331.3l3.4-5.8c1.1-1.9,2.5-3.3,4-4c1.5-0.7,3.2-0.9,4.9-0.5c1.8,0.3,3.7,1.1,5.6,2.2c2,1.1,3.5,2.4,4.6,3.8   c1.1,1.4,1.7,2.9,1.8,4.6s-0.4,3.5-1.6,5.4l-3.2,5.6L584.2,331.3z"/>
	<path d="M639.6,277c1.7,1.5,3.5,2.5,5.3,3.1c1.8,0.5,3.5,0.6,5.1,0.1c1.6-0.5,3.1-1.4,4.4-2.9c1-1.1,1.6-2.3,1.9-3.6   c0.2-1.3,0.1-2.6-0.3-3.8l0.1-0.1l2.4,2.1l2.4-2.8l-22.4-19.6l-2.5,2.8l5.7,5c0.5,0.5,1.1,0.9,1.6,1.4c0.6,0.5,1,0.8,1.4,1.1   l-0.1,0.1c-0.9-0.2-1.8-0.2-2.6,0c-0.9,0.1-1.7,0.4-2.5,0.9c-0.8,0.4-1.5,1-2.2,1.8c-1.2,1.3-1.9,2.8-2.1,4.5   c-0.3,1.7,0,3.4,0.7,5.1C636.6,273.8,637.8,275.5,639.6,277z M639.9,264.3c1-1.1,2-1.8,3.2-2c1.2-0.3,2.4-0.2,3.6,0.3   c1.3,0.4,2.5,1.2,3.7,2.3c1.2,1,2.1,2.1,2.7,3.3c0.6,1.2,0.9,2.3,0.8,3.5c-0.1,1.2-0.7,2.4-1.7,3.5c-0.9,1-1.9,1.6-3,1.8   c-1.1,0.2-2.3,0.1-3.5-0.4c-1.2-0.5-2.4-1.2-3.6-2.3c-1.2-1-2.1-2.1-2.7-3.3c-0.6-1.1-0.9-2.3-0.9-3.4   C638.6,266.3,639,265.3,639.9,264.3z"/>
	<path d="M710.3,196l1.7,2.4l2.8-1.9l8.3,11.8c0.6,0.9,1.3,1.4,2,1.7c0.7,0.3,1.4,0.3,2.2,0.1c0.8-0.2,1.5-0.6,2.3-1.1   c0.4-0.3,0.8-0.6,1.2-0.9c0.4-0.3,0.7-0.7,1.1-1.1l-1.8-2.6l-0.1,0.1c-0.1,0.2-0.3,0.4-0.6,0.6s-0.5,0.5-0.8,0.7   c-0.6,0.4-1.1,0.6-1.6,0.6c-0.5,0-0.9-0.3-1.4-1l-7.8-11.1l3.6-2.5l-1.7-2.4l-3.6,2.5l-3.9-5.5l-3,2.1l3.9,5.5L710.3,196z"/>
	<rect x="684.7" y="208.4" transform="matrix(0.7597 -0.6502 0.6502 0.7597 19.7683 500.0931)" width="3.7" height="29.8"/>
	<path d="M727.8,196.8c1.1,1.8,2.5,3.1,4.2,4.1c1.6,1,3.4,1.5,5.2,1.5c1.9,0,3.7-0.6,5.6-1.8c1.4-0.9,2.5-1.9,3.2-3.1   c0.8-1.2,1.2-2.4,1.4-3.7c0.2-1.3,0-2.6-0.5-3.9l-3,2c0.3,1.1,0.3,2.2-0.2,3.3s-1.3,2-2.6,2.8c-1.2,0.8-2.3,1.1-3.5,1.1   c-1.2,0-2.3-0.4-3.3-1c-1.1-0.6-2-1.5-2.9-2.6l13.8-9c-1-1.5-2.1-2.8-3.3-3.8c-1.2-1-2.4-1.7-3.8-2.1c-1.3-0.4-2.6-0.5-3.9-0.3   c-1.3,0.2-2.7,0.7-4,1.6c-1.7,1.1-2.9,2.5-3.7,4.2c-0.7,1.7-1,3.5-0.8,5.4C726,193.2,726.7,195,727.8,196.8z M729.6,186.6   c0.4-1,1.2-1.8,2.3-2.5c1-0.7,2.1-1,3.1-1.1c1,0,2,0.2,2.9,0.8c0.9,0.6,1.8,1.4,2.6,2.5l-10.4,6.8c-0.6-1.2-0.9-2.3-1-3.4   C729,188.6,729.1,187.6,729.6,186.6z"/>
	<path d="M700.4,214c0.8,0.3,1.6,0.4,2.5,0.3c0.9-0.1,1.8-0.4,2.7-0.7c0.9-0.4,1.9-0.8,2.8-1.3c1.2-0.6,2.1-1,3-1.3   c0.8-0.3,1.5-0.4,2.1-0.3c0.6,0.1,1.1,0.5,1.6,1.1c0.6,0.8,0.8,1.6,0.6,2.6c-0.2,1-1,2-2.3,3c-1.2,0.9-2.4,1.5-3.7,1.7   c-1.2,0.2-2.4-0.3-3.6-1.4l-3,2.3c1,1.1,2.1,1.8,3.4,2.2c1.3,0.4,2.6,0.4,4.1,0c1.5-0.4,3-1.2,4.5-2.4c1.3-1,2.4-2.1,3.1-3.3   c0.7-1.2,1.1-2.4,1.1-3.6c0-1.2-0.5-2.4-1.4-3.6c-0.8-1-1.6-1.7-2.4-2c-0.8-0.4-1.7-0.5-2.5-0.4c-0.9,0.1-1.8,0.3-2.7,0.7   c-0.9,0.4-1.9,0.8-2.8,1.3c-1.1,0.6-2.1,1-2.9,1.3c-0.8,0.3-1.5,0.5-2.1,0.4c-0.6,0-1.1-0.4-1.6-0.9c-0.5-0.6-0.7-1.4-0.5-2.3   c0.2-0.9,0.8-1.8,2-2.6c0.8-0.6,1.6-1.1,2.3-1.3c0.7-0.2,1.4-0.2,2-0.1c0.6,0.2,1.2,0.5,1.7,1l2.9-2.3c-0.9-0.9-1.9-1.5-3-1.8   c-1.1-0.3-2.3-0.3-3.6,0c-1.3,0.3-2.6,1-4,2.1c-1.3,1-2.3,2.1-2.9,3.2c-0.6,1.1-0.9,2.2-0.9,3.3c0.1,1.1,0.5,2.1,1.2,3.1   C698.9,213.1,699.6,213.7,700.4,214z"/>
	<rect x="694.4" y="209.8" transform="matrix(0.7749 -0.6321 0.6321 0.7749 17.2935 489.696)" width="3.7" height="21.5"/>
	<rect x="683.6" y="205.3" transform="matrix(0.7751 -0.6319 0.6319 0.7751 23.0918 479.8598)" width="3.9" height="4.3"/>
</g>
</svg>